<svg width="20" height="20" viewBox="0 0 20 20" fill="none" xmlns="http://www.w3.org/2000/svg">
<path d="M12.5003 18.9587H7.50033C2.97533 18.9587 1.04199 17.0253 1.04199 12.5003V7.50033C1.04199 2.97533 2.97533 1.04199 7.50033 1.04199H12.5003C17.0253 1.04199 18.9587 2.97533 18.9587 7.50033V12.5003C18.9587 17.0253 17.0253 18.9587 12.5003 18.9587ZM7.50033 2.29199C3.65866 2.29199 2.29199 3.65866 2.29199 7.50033V12.5003C2.29199 16.342 3.65866 17.7087 7.50033 17.7087H12.5003C16.342 17.7087 17.7087 16.342 17.7087 12.5003V7.50033C17.7087 3.65866 16.342 2.29199 12.5003 2.29199H7.50033Z" fill="#1E1E1E"/>
<path d="M6.10875 12.7C5.97542 12.7 5.84209 12.6583 5.72542 12.5667C5.45042 12.3583 5.40042 11.9667 5.60875 11.6917L7.59209 9.11667C7.83375 8.80834 8.17542 8.60834 8.56709 8.55834C8.95042 8.50834 9.34209 8.61667 9.65042 8.85834L11.1754 10.0583C11.2338 10.1083 11.2921 10.1083 11.3338 10.1C11.3671 10.1 11.4254 10.0833 11.4754 10.0167L13.4004 7.53334C13.6088 7.25834 14.0088 7.20834 14.2754 7.42501C14.5504 7.63334 14.6004 8.02501 14.3838 8.30001L12.4588 10.7833C12.2171 11.0917 11.8754 11.2917 11.4838 11.3333C11.0921 11.3833 10.7088 11.275 10.4004 11.0333L8.87542 9.83334C8.81709 9.78334 8.75042 9.78334 8.71709 9.79167C8.68375 9.79167 8.62542 9.80834 8.57542 9.87501L6.59209 12.45C6.48375 12.6167 6.30042 12.7 6.10875 12.7Z" fill="#1E1E1E"/>
</svg>
