<svg width="20" height="21" viewBox="0 0 20 21" fill="none" xmlns="http://www.w3.org/2000/svg">
<path d="M12.5003 19.6637H7.50033C2.97533 19.6637 1.04199 17.7304 1.04199 13.2054V8.2054C1.04199 3.6804 2.97533 1.74707 7.50033 1.74707H12.5003C17.0253 1.74707 18.9587 3.6804 18.9587 8.2054V13.2054C18.9587 17.7304 17.0253 19.6637 12.5003 19.6637ZM7.50033 2.99707C3.65866 2.99707 2.29199 4.36374 2.29199 8.2054V13.2054C2.29199 17.0471 3.65866 18.4137 7.50033 18.4137H12.5003C16.342 18.4137 17.7087 17.0471 17.7087 13.2054V8.2054C17.7087 4.36374 16.342 2.99707 12.5003 2.99707H7.50033Z" fill="white"/>
<path d="M6.10875 13.4051C5.97542 13.4051 5.84209 13.3634 5.72542 13.2718C5.45042 13.0634 5.40042 12.6718 5.60875 12.3968L7.59209 9.82175C7.83375 9.51342 8.17542 9.31342 8.56709 9.26342C8.95042 9.21342 9.34209 9.32175 9.65042 9.56342L11.1754 10.7634C11.2338 10.8134 11.2921 10.8134 11.3338 10.8051C11.3671 10.8051 11.4254 10.7884 11.4754 10.7218L13.4004 8.23842C13.6088 7.96342 14.0088 7.91342 14.2754 8.13008C14.5504 8.33842 14.6004 8.73008 14.3838 9.00508L12.4588 11.4884C12.2171 11.7968 11.8754 11.9968 11.4838 12.0384C11.0921 12.0884 10.7088 11.9801 10.4004 11.7384L8.87542 10.5384C8.81709 10.4884 8.75042 10.4884 8.71709 10.4968C8.68375 10.4968 8.62542 10.5134 8.57542 10.5801L6.59209 13.1551C6.48375 13.3218 6.30042 13.4051 6.10875 13.4051Z" fill="white"/>
</svg>
