<svg width="20" height="20" viewBox="0 0 20 20" fill="none" xmlns="http://www.w3.org/2000/svg">
<path d="M7.42467 17.2253C7.26634 17.2253 7.10801 17.1669 6.98301 17.0419C6.74134 16.8003 6.74134 16.4003 6.98301 16.1586L12.4163 10.7253C12.8163 10.3253 12.8163 9.67526 12.4163 9.27526L6.98301 3.84193C6.74134 3.60026 6.74134 3.20026 6.98301 2.95859C7.22467 2.71693 7.62467 2.71693 7.86634 2.95859L13.2997 8.39193C13.7247 8.81693 13.9663 9.39193 13.9663 10.0003C13.9663 10.6086 13.733 11.1836 13.2997 11.6086L7.86634 17.0419C7.74134 17.1586 7.58301 17.2253 7.42467 17.2253Z" fill="#808080"/>
</svg>
