<svg width="52" height="53" viewBox="0 0 52 53" fill="none" xmlns="http://www.w3.org/2000/svg">
<g filter="url(#filter0_d_109_21653)">
<rect x="2" y="1.5" width="48" height="48" rx="10" fill="#66B0FF"/>
<rect x="2.5" y="2" width="47" height="47" rx="9.5" stroke="#EAECF0"/>
<path d="M18.5 35.5V30.5M18.5 20.5V15.5M16 18H21M16 33H21M27 16.5L25.2658 21.0089C24.9838 21.7421 24.8428 22.1087 24.6235 22.4171C24.4292 22.6904 24.1904 22.9292 23.9171 23.1235C23.6087 23.3428 23.2421 23.4838 22.5089 23.7658L18 25.5L22.5089 27.2342C23.2421 27.5162 23.6087 27.6572 23.9171 27.8765C24.1904 28.0708 24.4292 28.3096 24.6235 28.5829C24.8428 28.8913 24.9838 29.2579 25.2658 29.9911L27 34.5L28.7342 29.9911C29.0162 29.2579 29.1572 28.8913 29.3765 28.5829C29.5708 28.3096 29.8096 28.0708 30.0829 27.8765C30.3913 27.6572 30.7579 27.5162 31.4911 27.2342L36 25.5L31.4911 23.7658C30.7579 23.4838 30.3913 23.3428 30.0829 23.1235C29.8096 22.9292 29.5708 22.6904 29.3765 22.4171C29.1572 22.1087 29.0162 21.7421 28.7342 21.0089L27 16.5Z" stroke="#1E1E1E" stroke-width="2" stroke-linecap="round" stroke-linejoin="round"/>
</g>
<defs>
<filter id="filter0_d_109_21653" x="0" y="0.5" width="52" height="52" filterUnits="userSpaceOnUse" color-interpolation-filters="sRGB">
<feFlood flood-opacity="0" result="BackgroundImageFix"/>
<feColorMatrix in="SourceAlpha" type="matrix" values="0 0 0 0 0 0 0 0 0 0 0 0 0 0 0 0 0 0 127 0" result="hardAlpha"/>
<feOffset dy="1"/>
<feGaussianBlur stdDeviation="1"/>
<feColorMatrix type="matrix" values="0 0 0 0 0.0627451 0 0 0 0 0.0941176 0 0 0 0 0.156863 0 0 0 0.05 0"/>
<feBlend mode="normal" in2="BackgroundImageFix" result="effect1_dropShadow_109_21653"/>
<feBlend mode="normal" in="SourceGraphic" in2="effect1_dropShadow_109_21653" result="shape"/>
</filter>
</defs>
</svg>
