<svg width="20" height="20" viewBox="0 0 20 20" fill="none" xmlns="http://www.w3.org/2000/svg">
<path d="M12.5003 18.9587H7.50033C2.97533 18.9587 1.04199 17.0253 1.04199 12.5003V7.50033C1.04199 2.97533 2.97533 1.04199 7.50033 1.04199H12.5003C17.0253 1.04199 18.9587 2.97533 18.9587 7.50033V12.5003C18.9587 17.0253 17.0253 18.9587 12.5003 18.9587ZM7.50033 2.29199C3.65866 2.29199 2.29199 3.65866 2.29199 7.50033V12.5003C2.29199 16.342 3.65866 17.7087 7.50033 17.7087H12.5003C16.342 17.7087 17.7087 16.342 17.7087 12.5003V7.50033C17.7087 3.65866 16.342 2.29199 12.5003 2.29199H7.50033Z" fill="#08FF03"/>
<path d="M8.81621 12.9837C8.64954 12.9837 8.49121 12.917 8.37454 12.8003L6.01621 10.442C5.77454 10.2003 5.77454 9.80033 6.01621 9.55866C6.25788 9.31699 6.65788 9.31699 6.89954 9.55866L8.81621 11.4753L13.0995 7.19199C13.3412 6.95033 13.7412 6.95033 13.9829 7.19199C14.2245 7.43366 14.2245 7.83366 13.9829 8.07533L9.25788 12.8003C9.14121 12.917 8.98288 12.9837 8.81621 12.9837Z" fill="#08FF03"/>
</svg>
