<svg width="20" height="21" viewBox="0 0 20 21" fill="none" xmlns="http://www.w3.org/2000/svg">
<path d="M14.783 19.6631H5.21634C3.14134 19.6631 1.45801 17.9797 1.45801 15.9047V10.2964C1.45801 8.22143 3.14134 6.53809 5.21634 6.53809H14.783C16.858 6.53809 18.5413 8.22143 18.5413 10.2964V11.4964C18.5413 11.8381 18.258 12.1214 17.9163 12.1214H16.233C15.9413 12.1214 15.6747 12.2298 15.483 12.4298L15.4747 12.4381C15.2413 12.6631 15.133 12.9714 15.158 13.2881C15.208 13.8381 15.733 14.2797 16.333 14.2797H17.9163C18.258 14.2797 18.5413 14.5631 18.5413 14.9047V15.8964C18.5413 17.9797 16.858 19.6631 14.783 19.6631ZM5.21634 7.78809C3.83301 7.78809 2.70801 8.91309 2.70801 10.2964V15.9047C2.70801 17.2881 3.83301 18.4131 5.21634 18.4131H14.783C16.1663 18.4131 17.2913 17.2881 17.2913 15.9047V15.5381H16.333C15.0747 15.5381 14.008 14.6047 13.908 13.4047C13.8413 12.7214 14.0913 12.0464 14.5913 11.5548C15.0247 11.1131 15.608 10.8714 16.233 10.8714H17.2913V10.2964C17.2913 8.91309 16.1663 7.78809 14.783 7.78809H5.21634Z" fill="white"/>
<path d="M2.08301 11.6721C1.74134 11.6721 1.45801 11.3887 1.45801 11.0471V7.23879C1.45801 5.99712 2.24134 4.87207 3.39967 4.43041L10.0163 1.93041C10.6997 1.67207 11.458 1.76378 12.0497 2.18045C12.6497 2.59712 12.9997 3.27211 12.9997 3.99711V7.16377C12.9997 7.50543 12.7163 7.78877 12.3747 7.78877C12.033 7.78877 11.7497 7.50543 11.7497 7.16377V3.99711C11.7497 3.68044 11.5997 3.38877 11.333 3.20543C11.0663 3.0221 10.7497 2.98043 10.4497 3.0971L3.83301 5.59709C3.15801 5.85543 2.69967 6.51379 2.69967 7.23879V11.0471C2.70801 11.3971 2.42467 11.6721 2.08301 11.6721Z" fill="white"/>
<path d="M16.3331 15.5387C15.0747 15.5387 14.0081 14.6054 13.9081 13.4054C13.8414 12.7137 14.0914 12.0387 14.5914 11.5471C15.0164 11.1137 15.5997 10.8721 16.2247 10.8721H17.9581C18.7831 10.8971 19.4164 11.547 19.4164 12.347V14.0638C19.4164 14.8638 18.7831 15.5137 17.9831 15.5387H16.3331ZM17.9414 12.1221H16.2331C15.9414 12.1221 15.6747 12.2304 15.4831 12.4304C15.2414 12.6637 15.1247 12.9804 15.1581 13.297C15.2081 13.847 15.7331 14.2887 16.3331 14.2887H17.9664C18.0747 14.2887 18.1747 14.1888 18.1747 14.0638V12.347C18.1747 12.222 18.0747 12.1304 17.9414 12.1221Z" fill="white"/>
<path d="M11.6663 11.3301H5.83301C5.49134 11.3301 5.20801 11.0467 5.20801 10.7051C5.20801 10.3634 5.49134 10.0801 5.83301 10.0801H11.6663C12.008 10.0801 12.2913 10.3634 12.2913 10.7051C12.2913 11.0467 12.008 11.3301 11.6663 11.3301Z" fill="white"/>
</svg>
