<svg width="36" height="35" viewBox="0 0 36 35" fill="none" xmlns="http://www.w3.org/2000/svg">
<rect x="0.463928" width="34.6608" height="34.6608" rx="17.3304" fill="#1E1E1E"/>
<path d="M16.5418 12.3393L13.6103 8.95549C13.2724 8.56556 12.6528 8.56729 12.2603 8.96069L9.84961 11.3757C9.13213 12.094 8.92677 13.1607 9.34183 14.016C11.8215 19.1501 15.9621 23.2965 21.0927 25.7833C21.9471 26.1984 23.0129 25.993 23.7304 25.2747L26.1636 22.8372C26.5579 22.4429 26.5587 21.8199 26.1653 21.4819L22.7686 18.5661C22.4133 18.2611 21.8613 18.3009 21.5052 18.6579L20.3233 19.8416C20.2627 19.905 20.1831 19.9468 20.0965 19.9606C20.01 19.9744 19.9213 19.9593 19.8441 19.9178C17.9121 18.8053 16.3095 17.2006 15.1995 15.2672C15.1579 15.1899 15.1429 15.1011 15.1567 15.0143C15.1704 14.9276 15.2123 14.8478 15.2758 14.7872L16.4542 13.6078C16.8112 13.2491 16.8502 12.6945 16.5418 12.3384V12.3393Z" stroke="#007BFF" stroke-width="1.29978" stroke-linecap="round" stroke-linejoin="round"/>
</svg>
