<svg width="28" height="28" viewBox="0 0 28 28" fill="none" xmlns="http://www.w3.org/2000/svg">
<rect width="28" height="28" rx="14" fill="#08FF03" fill-opacity="0.1"/>
<path d="M12.875 19.925V8.075C12.875 6.95 12.4 6.5 11.2 6.5H8.175C6.975 6.5 6.5 6.95 6.5 8.075V19.925C6.5 21.05 6.975 21.5 8.175 21.5H11.2C12.4 21.5 12.875 21.05 12.875 19.925Z" fill="#08FF03"/>
<path d="M21.5 19.925V8.075C21.5 6.95 21.025 6.5 19.825 6.5H16.8C15.6083 6.5 15.125 6.95 15.125 8.075V19.925C15.125 21.05 15.6 21.5 16.8 21.5H19.825C21.025 21.5 21.5 21.05 21.5 19.925Z" fill="#08FF03"/>
</svg>
