<svg width="69" height="69" viewBox="0 0 69 69" fill="none" xmlns="http://www.w3.org/2000/svg">
<rect width="69" height="69" rx="28.5714" fill="#B9B9B9"/>
<path d="M23.5163 50.7509C21.6496 50.7509 20.4663 50.1176 19.7163 49.3676C18.2496 47.9009 17.2163 44.7842 20.5163 38.1676L21.9663 35.2842C22.1496 34.9009 22.1496 34.1009 21.9663 33.7176L20.5163 30.8342C17.1996 24.2176 18.2496 21.0842 19.7163 19.6342C21.1663 18.1676 24.2996 17.1176 30.8996 20.4342L45.1663 27.5676C48.7163 29.3342 50.6663 31.8009 50.6663 34.5009C50.6663 37.2009 48.7163 39.6676 45.1829 41.4342L30.9163 48.5676C27.6829 50.1842 25.2829 50.7509 23.5163 50.7509ZM23.5163 20.7509C22.6163 20.7509 21.9163 20.9676 21.4829 21.4009C20.2663 22.6009 20.7496 25.7176 22.7496 29.7009L24.1996 32.6009C24.7329 33.6842 24.7329 35.3176 24.1996 36.4009L22.7496 39.2842C20.7496 43.2842 20.2663 46.3842 21.4829 47.5842C22.6829 48.8009 25.7996 48.3176 29.7996 46.3176L44.0663 39.1842C46.6829 37.8842 48.1663 36.1676 48.1663 34.4842C48.1663 32.8009 46.6663 31.0842 44.0496 29.7842L29.7829 22.6676C27.2496 21.4009 25.0663 20.7509 23.5163 20.7509Z" fill="#1E1E1E"/>
<path d="M32.5664 35.75H23.5664C22.8831 35.75 22.3164 35.1833 22.3164 34.5C22.3164 33.8167 22.8831 33.25 23.5664 33.25H32.5664C33.2497 33.25 33.8164 33.8167 33.8164 34.5C33.8164 35.1833 33.2497 35.75 32.5664 35.75Z" fill="#1E1E1E"/>
</svg>
