<svg width="20" height="20" viewBox="0 0 20 20" fill="none" xmlns="http://www.w3.org/2000/svg">
<path d="M18.333 6.04199H13.333C12.9913 6.04199 12.708 5.75866 12.708 5.41699C12.708 5.07533 12.9913 4.79199 13.333 4.79199H18.333C18.6747 4.79199 18.958 5.07533 18.958 5.41699C18.958 5.75866 18.6747 6.04199 18.333 6.04199Z" fill="#1E1E1E"/>
<path d="M5.00033 6.04199H1.66699C1.32533 6.04199 1.04199 5.75866 1.04199 5.41699C1.04199 5.07533 1.32533 4.79199 1.66699 4.79199H5.00033C5.34199 4.79199 5.62533 5.07533 5.62533 5.41699C5.62533 5.75866 5.34199 6.04199 5.00033 6.04199Z" fill="#1E1E1E"/>
<path d="M8.33366 8.95833C6.38366 8.95833 4.79199 7.36667 4.79199 5.41667C4.79199 3.46667 6.38366 1.875 8.33366 1.875C10.2837 1.875 11.8753 3.46667 11.8753 5.41667C11.8753 7.36667 10.2837 8.95833 8.33366 8.95833ZM8.33366 3.125C7.06699 3.125 6.04199 4.15 6.04199 5.41667C6.04199 6.68333 7.06699 7.70833 8.33366 7.70833C9.60033 7.70833 10.6253 6.68333 10.6253 5.41667C10.6253 4.15 9.60033 3.125 8.33366 3.125Z" fill="#1E1E1E"/>
<path d="M18.3333 15.208H15C14.6583 15.208 14.375 14.9247 14.375 14.583C14.375 14.2413 14.6583 13.958 15 13.958H18.3333C18.675 13.958 18.9583 14.2413 18.9583 14.583C18.9583 14.9247 18.675 15.208 18.3333 15.208Z" fill="#1E1E1E"/>
<path d="M6.66699 15.208H1.66699C1.32533 15.208 1.04199 14.9247 1.04199 14.583C1.04199 14.2413 1.32533 13.958 1.66699 13.958H6.66699C7.00866 13.958 7.29199 14.2413 7.29199 14.583C7.29199 14.9247 7.00866 15.208 6.66699 15.208Z" fill="#1E1E1E"/>
<path d="M11.6667 18.1253C9.71667 18.1253 8.125 16.5337 8.125 14.5837C8.125 12.6337 9.71667 11.042 11.6667 11.042C13.6167 11.042 15.2083 12.6337 15.2083 14.5837C15.2083 16.5337 13.6167 18.1253 11.6667 18.1253ZM11.6667 12.292C10.4 12.292 9.375 13.317 9.375 14.5837C9.375 15.8503 10.4 16.8753 11.6667 16.8753C12.9333 16.8753 13.9583 15.8503 13.9583 14.5837C13.9583 13.317 12.9333 12.292 11.6667 12.292Z" fill="#1E1E1E"/>
</svg>
