<svg width="28" height="28" viewBox="0 0 28 28" fill="none" xmlns="http://www.w3.org/2000/svg">
<rect width="28" height="28" rx="14" fill="#08FF03" fill-opacity="0.1"/>
<path d="M12.9921 16.6421C12.8255 16.6421 12.6671 16.5754 12.5505 16.4587L10.5338 14.4421C10.2921 14.2004 10.2921 13.8004 10.5338 13.5587C10.7755 13.3171 11.1755 13.3171 11.4171 13.5587L12.9921 15.1337L16.5755 11.5504C16.8171 11.3087 17.2171 11.3087 17.4588 11.5504C17.7005 11.7921 17.7005 12.1921 17.4588 12.4337L13.4338 16.4587C13.3171 16.5754 13.1588 16.6421 12.9921 16.6421Z" fill="#08FF03"/>
<path d="M14.0001 22.9587C13.4751 22.9587 12.9501 22.7837 12.5417 22.4337L11.2251 21.3003C11.0917 21.1837 10.7584 21.067 10.5834 21.067H9.15006C7.91673 21.067 6.91673 20.067 6.91673 18.8337V17.4087C6.91673 17.2337 6.80007 16.9087 6.6834 16.7753L5.5584 15.4503C4.87507 14.642 4.87507 13.367 5.5584 12.5587L6.6834 11.2337C6.80007 11.1003 6.91673 10.7753 6.91673 10.6003V9.16699C6.91673 7.93366 7.91673 6.93366 9.15006 6.93366H10.5917C10.7667 6.93366 11.1001 6.80866 11.2334 6.70033L12.5501 5.56699C13.3667 4.86699 14.6417 4.86699 15.4584 5.56699L16.7751 6.70033C16.9084 6.81699 17.2417 6.93366 17.4167 6.93366H18.8334C20.0667 6.93366 21.0667 7.93366 21.0667 9.16699V10.5837C21.0667 10.7587 21.1917 11.092 21.3084 11.2253L22.4417 12.542C23.1417 13.3587 23.1417 14.6337 22.4417 15.4503L21.3084 16.767C21.1917 16.9003 21.0667 17.2337 21.0667 17.4087V18.8253C21.0667 20.0587 20.0667 21.0587 18.8334 21.0587H17.4167C17.2417 21.0587 16.9084 21.1837 16.7751 21.292L15.4584 22.4253C15.0501 22.7837 14.5251 22.9587 14.0001 22.9587ZM9.15006 8.18366C8.6084 8.18366 8.16673 8.62533 8.16673 9.16699V10.592C8.16673 11.067 7.94173 11.6753 7.6334 12.0337L6.5084 13.3587C6.21673 13.7003 6.21673 14.292 6.5084 14.6337L7.6334 15.9587C7.94173 16.3253 8.16673 16.9253 8.16673 17.4003V18.8253C8.16673 19.367 8.6084 19.8087 9.15006 19.8087H10.5917C11.0751 19.8087 11.6834 20.0337 12.0501 20.3503L13.3667 21.4837C13.7084 21.7753 14.3084 21.7753 14.6501 21.4837L15.9667 20.3503C16.3334 20.042 16.9417 19.8087 17.4251 19.8087H18.8417C19.3834 19.8087 19.8251 19.367 19.8251 18.8253V17.4087C19.8251 16.9253 20.0501 16.317 20.3667 15.9503L21.5001 14.6337C21.7917 14.292 21.7917 13.692 21.5001 13.3503L20.3667 12.0337C20.0501 11.667 19.8251 11.0587 19.8251 10.5753V9.16699C19.8251 8.62533 19.3834 8.18366 18.8417 8.18366H17.4251C16.9417 8.18366 16.3334 7.95866 15.9667 7.64199L14.6501 6.50866C14.3084 6.21699 13.7084 6.21699 13.3667 6.50866L12.0501 7.65033C11.6834 7.95866 11.0667 8.18366 10.5917 8.18366H9.15006Z" fill="#08FF03"/>
</svg>
