<svg width="20" height="20" viewBox="0 0 20 20" fill="none" xmlns="http://www.w3.org/2000/svg">
<path d="M12.5003 18.9587H7.50033C2.97533 18.9587 1.04199 17.0253 1.04199 12.5003V7.50033C1.04199 2.97533 2.97533 1.04199 7.50033 1.04199H12.5003C17.0253 1.04199 18.9587 2.97533 18.9587 7.50033V12.5003C18.9587 17.0253 17.0253 18.9587 12.5003 18.9587ZM7.50033 2.29199C3.65866 2.29199 2.29199 3.65866 2.29199 7.50033V12.5003C2.29199 16.342 3.65866 17.7087 7.50033 17.7087H12.5003C16.342 17.7087 17.7087 16.342 17.7087 12.5003V7.50033C17.7087 3.65866 16.342 2.29199 12.5003 2.29199H7.50033Z" fill="#FFB904"/>
</svg>
