<svg width="20" height="21" viewBox="0 0 20 21" fill="none" xmlns="http://www.w3.org/2000/svg">
<path d="M16.6667 7.37151L11.6667 2.98817C11.2084 2.57821 10.615 2.35156 10.0001 2.35156C9.38513 2.35156 8.79176 2.57821 8.33341 2.98817L3.33341 7.37151C3.06872 7.60823 2.8575 7.89864 2.71381 8.22338C2.57012 8.54812 2.49726 8.89974 2.50008 9.25484V16.5382C2.50008 17.2012 2.76347 17.8371 3.23231 18.3059C3.70115 18.7748 4.33704 19.0382 5.00008 19.0382H15.0001C15.6631 19.0382 16.299 18.7748 16.7678 18.3059C17.2367 17.8371 17.5001 17.2012 17.5001 16.5382V9.24651C17.5017 8.89281 17.4283 8.54279 17.2846 8.21957C17.141 7.89636 16.9304 7.6073 16.6667 7.37151ZM11.6667 17.3715H8.33341V13.2048C8.33341 12.9838 8.42121 12.7719 8.57749 12.6156C8.73377 12.4593 8.94573 12.3715 9.16675 12.3715H10.8334C11.0544 12.3715 11.2664 12.4593 11.4227 12.6156C11.5789 12.7719 11.6667 12.9838 11.6667 13.2048V17.3715ZM15.8334 16.5382C15.8334 16.7592 15.7456 16.9711 15.5893 17.1274C15.4331 17.2837 15.2211 17.3715 15.0001 17.3715H13.3334V13.2048C13.3334 12.5418 13.07 11.9059 12.6012 11.4371C12.1323 10.9682 11.4965 10.7048 10.8334 10.7048H9.16675C8.5037 10.7048 7.86782 10.9682 7.39898 11.4371C6.93014 11.9059 6.66675 12.5418 6.66675 13.2048V17.3715H5.00008C4.77907 17.3715 4.5671 17.2837 4.41082 17.1274C4.25454 16.9711 4.16675 16.7592 4.16675 16.5382V9.24651C4.1669 9.12818 4.19224 9.01125 4.24109 8.90349C4.28995 8.79572 4.36119 8.6996 4.45008 8.62151L9.45008 4.24651C9.60215 4.11291 9.79766 4.03923 10.0001 4.03923C10.2025 4.03923 10.398 4.11291 10.5501 4.24651L15.5501 8.62151C15.639 8.6996 15.7102 8.79572 15.7591 8.90349C15.8079 9.01125 15.8333 9.12818 15.8334 9.24651V16.5382Z" fill="white"/>
</svg>
