<svg width="40" height="40" viewBox="0 0 40 40" fill="none" xmlns="http://www.w3.org/2000/svg">
<rect width="40" height="40" rx="20" fill="white"/>
<rect x="4" y="4" width="32" height="32" rx="16" fill="#016D4A"/>
<mask id="path-3-inside-1_60_34646" fill="white">
<path d="M25 20.625H15C14.6583 20.625 14.375 20.3417 14.375 20C14.375 19.6583 14.6583 19.375 15 19.375H25C25.3417 19.375 25.625 19.6583 25.625 20C25.625 20.3417 25.3417 20.625 25 20.625Z"/>
</mask>
<path d="M25 20.625H15C14.6583 20.625 14.375 20.3417 14.375 20C14.375 19.6583 14.6583 19.375 15 19.375H25C25.3417 19.375 25.625 19.6583 25.625 20C25.625 20.3417 25.3417 20.625 25 20.625Z" fill="white"/>
<path d="M25 19.375H15V21.875H25V19.375ZM15 19.375C15.3487 19.375 15.625 19.6513 15.625 20H13.125C13.125 21.032 13.968 21.875 15 21.875V19.375ZM15.625 20C15.625 20.3487 15.3487 20.625 15 20.625V18.125C13.968 18.125 13.125 18.968 13.125 20H15.625ZM15 20.625H25V18.125H15V20.625ZM25 20.625C24.6513 20.625 24.375 20.3487 24.375 20H26.875C26.875 18.968 26.032 18.125 25 18.125V20.625ZM24.375 20C24.375 19.6513 24.6513 19.375 25 19.375V21.875C26.032 21.875 26.875 21.032 26.875 20H24.375Z" fill="white" mask="url(#path-3-inside-1_60_34646)"/>
<mask id="path-5-inside-2_60_34646" fill="white">
<path d="M20 25.625C19.6583 25.625 19.375 25.3417 19.375 25V15C19.375 14.6583 19.6583 14.375 20 14.375C20.3417 14.375 20.625 14.6583 20.625 15V25C20.625 25.3417 20.3417 25.625 20 25.625Z"/>
</mask>
<path d="M20 25.625C19.6583 25.625 19.375 25.3417 19.375 25V15C19.375 14.6583 19.6583 14.375 20 14.375C20.3417 14.375 20.625 14.6583 20.625 15V25C20.625 25.3417 20.3417 25.625 20 25.625Z" fill="white"/>
<path d="M20 24.375C20.3487 24.375 20.625 24.6513 20.625 25H18.125C18.125 26.032 18.968 26.875 20 26.875V24.375ZM20.625 25V15H18.125V25H20.625ZM20.625 15C20.625 15.3487 20.3487 15.625 20 15.625V13.125C18.968 13.125 18.125 13.968 18.125 15H20.625ZM20 15.625C19.6513 15.625 19.375 15.3487 19.375 15H21.875C21.875 13.968 21.032 13.125 20 13.125V15.625ZM19.375 15V25H21.875V15H19.375ZM19.375 25C19.375 24.6513 19.6513 24.375 20 24.375V26.875C21.032 26.875 21.875 26.032 21.875 25H19.375Z" fill="white" mask="url(#path-5-inside-2_60_34646)"/>
</svg>
