<svg width="37" height="12" viewBox="0 0 37 12" fill="none" xmlns="http://www.w3.org/2000/svg">
<path d="M15.9102 11.8279H13.0186L14.8272 0.30957L17.7187 0.30957L15.9102 11.8279Z" fill="white"/>
<path d="M26.3929 0.590965C25.8225 0.357909 24.9179 0.100586 23.7993 0.100586C20.9437 0.100586 18.9328 1.66895 18.9205 3.91124C18.8968 5.5656 20.3602 6.48447 21.4548 7.03609C22.5735 7.59975 22.9538 7.96766 22.9538 8.47009C22.9424 9.24173 22.0498 9.59743 21.2173 9.59743C20.0628 9.59743 19.4442 9.41404 18.5042 8.98474L18.1234 8.8007L17.7188 11.3863C18.397 11.7045 19.6465 11.9869 20.9437 11.9993C23.9778 11.9993 25.9531 10.4552 25.9765 8.0657C25.9881 6.7545 25.2153 5.7498 23.5493 4.92881C22.5379 4.40179 21.9186 4.04642 21.9186 3.50718C21.9304 3.01697 22.4424 2.51486 23.5841 2.51486C24.5242 2.49027 25.2149 2.723 25.7381 2.95589L25.9996 3.0782L26.3929 0.590965Z" fill="white"/>
<path d="M30.2365 7.74734C30.4747 7.08563 31.391 4.52462 31.391 4.52462C31.379 4.54921 31.6287 3.85069 31.7715 3.42187L31.9735 4.41436C31.9735 4.41436 32.5211 7.17146 32.64 7.74734C32.1881 7.74734 30.8077 7.74734 30.2365 7.74734ZM33.8059 0.30957L31.5692 0.30957C30.8795 0.30957 30.3554 0.517709 30.0579 1.26525L25.7627 11.8277H28.7968C28.7968 11.8277 29.2963 10.4061 29.4037 10.0999C29.7365 10.0999 32.6881 10.0999 33.1163 10.0999C33.1993 10.5043 33.4614 11.8277 33.4614 11.8277H36.1387L33.8059 0.30957Z" fill="white"/>
<path d="M10.6041 0.30957L7.77219 8.16394L7.46273 6.57098C6.93918 4.73292 5.2972 2.7359 3.46484 1.74292L6.05874 11.8156H9.11657L13.6617 0.30957L10.6041 0.30957Z" fill="white"/>
<path d="M5.14235 0.30957L0.489978 0.30957L0.442383 0.542301C4.07152 1.49814 6.47503 3.80216 7.46253 6.57147L6.45116 1.27779C6.28465 0.542138 5.77295 0.333837 5.14235 0.30957Z" fill="url(#paint0_linear_60_33335)"/>
<defs>
<linearGradient id="paint0_linear_60_33335" x1="3.95245" y1="0.30957" x2="3.95245" y2="6.57147" gradientUnits="userSpaceOnUse">
<stop stop-color="white"/>
<stop offset="1" stop-color="white" stop-opacity="0"/>
</linearGradient>
</defs>
</svg>
