<svg width="17" height="22" viewBox="0 0 17 22" fill="none" xmlns="http://www.w3.org/2000/svg">
<path d="M6.38019 6.23893C7.4859 7.48282 8.09668 9.08925 8.09668 10.7535C8.09668 12.4178 7.4859 14.0243 6.38019 15.2682C6.28924 15.3733 6.17831 15.4593 6.05385 15.5211C5.92938 15.583 5.79387 15.6196 5.65517 15.6286C5.51647 15.6377 5.37735 15.6191 5.24589 15.574C5.11443 15.5288 4.99326 15.458 4.8894 15.3656C4.78554 15.2732 4.70107 15.1612 4.64089 15.0359C4.58071 14.9106 4.54603 14.7746 4.53886 14.6358C4.53168 14.4969 4.55215 14.3581 4.59909 14.2273C4.64603 14.0964 4.71849 13.9762 4.81227 13.8736C5.57635 13.0139 5.9984 11.9037 5.9984 10.7535C5.9984 9.60337 5.57635 8.49317 4.81227 7.63346C4.62735 7.42541 4.53264 7.15242 4.54899 6.87454C4.56535 6.59666 4.69141 6.33666 4.89946 6.15174C5.10751 5.96681 5.38051 5.87211 5.65838 5.88846C5.93626 5.90481 6.19626 6.03088 6.38119 6.23893L6.38019 6.23893Z" fill="white"/>
<path d="M12.4062 10.7546C12.4101 13.5717 11.3394 16.2843 9.41231 18.3393C9.31911 18.4433 9.20608 18.5277 9.07983 18.5875C8.95359 18.6473 8.81668 18.6813 8.67714 18.6875C8.53759 18.6936 8.39821 18.6719 8.26718 18.6235C8.13615 18.5751 8.01611 18.501 7.91408 18.4056C7.81205 18.3102 7.73011 18.1954 7.67304 18.0679C7.61597 17.9404 7.58493 17.8028 7.58175 17.6631C7.57856 17.5235 7.60329 17.3846 7.65448 17.2546C7.70568 17.1247 7.7823 17.0062 7.87987 16.9063C9.43986 15.2377 10.3077 13.0388 10.3077 10.7546C10.3077 8.47032 9.43986 6.27139 7.87987 4.60281C7.7823 4.50285 7.70568 4.38442 7.65448 4.25446C7.60329 4.12449 7.57856 3.98561 7.58175 3.84597C7.58493 3.70632 7.61597 3.56872 7.67304 3.44122C7.73011 3.31373 7.81205 3.19891 7.91408 3.10351C8.01611 3.0081 8.13615 2.93402 8.26718 2.88563C8.39822 2.83723 8.53759 2.81548 8.67714 2.82165C8.81668 2.82783 8.95359 2.8618 9.07984 2.92159C9.20608 2.98137 9.31911 3.06576 9.41231 3.16981C11.3394 5.22478 12.4101 7.93737 12.4062 10.7546Z" fill="white"/>
<path d="M12.7978 0.475838C15.3218 3.30474 16.7168 6.96346 16.7168 10.7547C16.7168 14.546 15.3218 18.2047 12.7978 21.0336C12.707 21.1399 12.5958 21.227 12.4708 21.2898C12.3459 21.3525 12.2097 21.3897 12.0701 21.399C11.9306 21.4084 11.7907 21.3897 11.6584 21.3442C11.5262 21.2987 11.4044 21.2273 11.3002 21.134C11.196 21.0408 11.1115 20.9276 11.0517 20.8013C10.9918 20.6749 10.9578 20.5378 10.9517 20.3982C10.9455 20.2585 10.9674 20.119 11.0159 19.9878C11.0645 19.8567 11.1387 19.7366 11.2344 19.6346C13.4142 17.1904 14.6188 14.0299 14.6188 10.755C14.6188 7.48002 13.4142 4.31949 11.2344 1.87537C11.0488 1.66792 10.9533 1.39526 10.9688 1.11738C10.9843 0.839504 11.1096 0.579168 11.317 0.393646C11.5245 0.208122 11.7972 0.112608 12.075 0.128117C12.3529 0.143623 12.6132 0.268885 12.7988 0.476339L12.7978 0.475838Z" fill="white"/>
<path d="M0.328581 10.7546C0.328581 9.87158 1.04443 9.15573 1.92747 9.15573C2.81052 9.15573 3.52637 9.87158 3.52637 10.7546C3.52637 11.6377 2.81052 12.3535 1.92747 12.3535C1.04443 12.3535 0.328581 11.6377 0.328581 10.7546Z" fill="white"/>
</svg>
